<?xml version="1.0" encoding="utf-8"?>
<!-- Generator: Adobe Illustrator 26.2.1, SVG Export Plug-In . SVG Version: 6.00 Build 0)  -->
<svg version="1.1" xmlns="http://www.w3.org/2000/svg" xmlns:xlink="http://www.w3.org/1999/xlink" x="0px" y="0px"
	 viewBox="0 0 878.74 773.77" style="enable-background:new 0 0 878.74 773.77;" xml:space="preserve">
<style type="text/css">
	.st0{fill:none;stroke:#FFFFFF;stroke-width:2;stroke-miterlimit:10;}
</style>
<g id="Layer_1">
	<rect width="878.74" height="773.77"/>
</g>
<g id="Layer_2">
	<g>
		
			<rect x="108.62" y="435.23" transform="matrix(0.7071 0.7071 -0.7071 0.7071 473.7063 49.9643)" class="st0" width="135.85" height="323.12"/>
		
			<rect x="376.04" y="248.59" transform="matrix(0.7071 0.7071 -0.7071 0.7071 362.9362 -217.4582)" class="st0" width="135.85" height="161.56"/>
		
			<rect x="585.25" y="39.38" transform="matrix(0.7071 0.7071 -0.7071 0.7071 276.2776 -426.6705)" class="st0" width="135.85" height="161.56"/>
		
			<rect x="108.52" y="224.48" transform="matrix(0.7071 0.7071 -0.7071 0.7071 324.6513 -11.6967)" class="st0" width="135.85" height="323.12"/>
		
			<rect x="375.76" y="38.02" transform="matrix(0.7071 0.7071 -0.7071 0.7071 213.9554 -278.9402)" class="st0" width="135.85" height="161.56"/>
		
			<rect x="270.61" y="143.17" transform="matrix(0.7071 -0.7071 0.7071 0.7071 -59.1997 304.975)" class="st0" width="135.85" height="161.56"/>
		
			<rect x="586.34" y="458.89" transform="matrix(0.7071 0.7071 -0.7071 0.7071 573.238 -304.5681)" class="st0" width="135.85" height="161.56"/>
		
			<rect x="586.07" y="248.32" transform="matrix(0.7071 0.7071 -0.7071 0.7071 424.2572 -366.0501)" class="st0" width="135.85" height="161.56"/>
		
			<rect x="108.6" y="14.62" transform="matrix(-0.7071 -0.7071 0.7071 -0.7071 176.7722 425.577)" class="st0" width="135.85" height="323.12"/>
		
			<rect x="691.04" y="353.29" transform="matrix(0.7071 -0.7071 0.7071 0.7071 -84.6394 663.8035)" class="st0" width="135.85" height="161.56"/>
		
			<rect x="480.91" y="143.17" transform="matrix(0.7071 -0.7071 0.7071 0.7071 2.3963 453.6808)" class="st0" width="135.85" height="161.56"/>
		
			<rect x="270.61" y="353.47" transform="matrix(0.7071 -0.7071 0.7071 0.7071 -207.9055 366.5709)" class="st0" width="135.85" height="161.56"/>
		
			<rect x="481.19" y="564.05" transform="matrix(0.7071 -0.7071 0.7071 0.7071 -295.1292 577.1477)" class="st0" width="135.85" height="161.56"/>
		
			<rect x="481.19" y="353.74" transform="matrix(0.7071 -0.7071 0.7071 0.7071 -146.4234 515.5517)" class="st0" width="135.85" height="161.56"/>
		
			<rect x="691.49" y="564.05" transform="matrix(0.7071 -0.7071 0.7071 0.7071 -233.5333 725.8535)" class="st0" width="135.85" height="161.56"/>
		
			<rect x="375.76" y="458.62" transform="matrix(0.7071 0.7071 -0.7071 0.7071 511.3671 -155.7483)" class="st0" width="135.85" height="161.56"/>
		
			<rect x="270.89" y="564.05" transform="matrix(0.7071 -0.7071 0.7071 0.7071 -356.7252 428.4419)" class="st0" width="135.85" height="161.56"/>
		
			<rect x="691.49" y="143.44" transform="matrix(0.7071 -0.7071 0.7071 0.7071 63.8783 602.6616)" class="st0" width="135.85" height="161.56"/>
		<line class="st0" x1="137.6" y1="539.68" x2="128.24" y2="530.31"/>
		<line class="st0" x1="137.55" y1="328.87" x2="128.72" y2="320.04"/>
	</g>
</g>
</svg>
