<?xml version="1.0" encoding="utf-8"?>
<!-- Generator: Adobe Illustrator 26.2.1, SVG Export Plug-In . SVG Version: 6.00 Build 0)  -->
<svg version="1.1" id="Layer_1" xmlns="http://www.w3.org/2000/svg" xmlns:xlink="http://www.w3.org/1999/xlink" x="0px" y="0px"
	 viewBox="0 0 878.7 773.8" style="enable-background:new 0 0 878.7 773.8;" xml:space="preserve">
<style type="text/css">
	.st0{fill:#FFFFFF;stroke:#000000;stroke-width:6;stroke-miterlimit:10;}
</style>
<g id="Layer_1_00000114074804538927068740000008413038630306574214_">
	<rect width="878.7" height="773.8"/>
</g>
<g id="Layer_2_00000137839367433806484180000002957880300878197940_">
	<g>
		
			<rect x="15" y="528.9" transform="matrix(0.7071 -0.7071 0.7071 0.7071 -370.2833 299.636)" class="st0" width="323.1" height="135.8"/>
		
			<rect x="363.2" y="261.4" transform="matrix(0.7071 -0.7071 0.7071 0.7071 -102.8629 410.4009)" class="st0" width="161.6" height="135.8"/>
		
			<rect x="572.4" y="52.2" transform="matrix(0.7071 -0.7071 0.7071 0.7071 106.3476 497.0552)" class="st0" width="161.6" height="135.8"/>
		
			<rect x="14.9" y="318.1" transform="matrix(0.7071 -0.7071 0.7071 0.7071 -221.2889 237.8341)" class="st0" width="323.1" height="135.8"/>
		
			<rect x="362.9" y="50.9" transform="matrix(0.7071 -0.7071 0.7071 0.7071 45.952 348.5239)" class="st0" width="161.6" height="135.8"/>
		
			<rect x="270.6" y="143.2" transform="matrix(0.7071 -0.7071 0.7071 0.7071 -59.2038 304.9733)" class="st0" width="135.8" height="161.6"/>
		
			<rect x="573.5" y="471.7" transform="matrix(0.7071 -0.7071 0.7071 0.7071 -189.9689 620.7012)" class="st0" width="161.6" height="135.8"/>
		
			<rect x="573.2" y="261.2" transform="matrix(0.7071 -0.7071 0.7071 0.7071 -41.1569 558.8312)" class="st0" width="161.6" height="135.8"/>
		
			<rect x="15" y="108.3" transform="matrix(0.7071 -0.7071 0.7071 0.7071 -72.8736 176.426)" class="st0" width="323.1" height="135.8"/>
		
			<rect x="691" y="353.3" transform="matrix(0.7071 -0.7071 0.7071 0.7071 -84.6411 663.7989)" class="st0" width="135.8" height="161.6"/>
		
			<rect x="480.9" y="143.2" transform="matrix(0.7071 -0.7071 0.7071 0.7071 2.3895 453.678)" class="st0" width="135.8" height="161.6"/>
		
			<rect x="270.6" y="353.5" transform="matrix(0.7071 -0.7071 0.7071 0.7071 -207.9084 366.5666)" class="st0" width="135.8" height="161.6"/>
		
			<rect x="481.2" y="564" transform="matrix(0.7071 -0.7071 0.7071 0.7071 -295.1317 577.1446)" class="st0" width="135.8" height="161.6"/>
		
			<rect x="481.2" y="353.7" transform="matrix(0.7071 -0.7071 0.7071 0.7071 -146.424 515.5442)" class="st0" width="135.8" height="161.6"/>
		
			<rect x="691.5" y="564.1" transform="matrix(0.7071 -0.7071 0.7071 0.7071 -233.5385 725.8492)" class="st0" width="135.8" height="161.6"/>
		
			<rect x="362.9" y="471.5" transform="matrix(0.7071 -0.7071 0.7071 0.7071 -251.4542 471.7181)" class="st0" width="161.6" height="135.8"/>
		
			<rect x="270.9" y="564" transform="matrix(0.7071 -0.7071 0.7071 0.7071 -356.725 428.4398)" class="st0" width="135.8" height="161.6"/>
		
			<rect x="691.5" y="143.4" transform="matrix(0.7071 -0.7071 0.7071 0.7071 63.8738 602.6556)" class="st0" width="135.8" height="161.6"/>
		<line class="st0" x1="137.6" y1="539.7" x2="128.2" y2="530.3"/>
		<line class="st0" x1="137.6" y1="328.9" x2="128.7" y2="320"/>
	</g>
</g>
</svg>
